<svg width="60" height="60" viewBox="0 0 60 60" fill="none" xmlns="http://www.w3.org/2000/svg">
<path d="M59.1797 30.1172C59.1797 34.1953 59.0977 38.2852 59.2031 42.3633C59.3789 49.582 54.8437 55.1602 49.0664 57.6445C46.7461 58.6406 44.3086 59.168 41.7891 59.168C33.9023 59.1797 26.0039 59.2852 18.1172 59.1328C12.1758 59.0156 7.28906 56.5313 3.78516 51.6328C1.94531 49.0547 1.06641 46.125 1.06641 42.9492C1.06641 34.5469 1.06641 26.1563 1.06641 17.7539C1.06641 10.8985 4.40625 6.10548 10.3359 2.9883C12.9141 1.64064 15.7148 1.06642 18.6328 1.0547C26.2852 1.0547 33.9492 1.00783 41.6016 1.07814C47.543 1.12502 52.5 3.39845 56.1562 8.1797C58.1953 10.8516 59.1797 13.9219 59.1797 17.2969C59.1797 21.5625 59.1797 25.8399 59.1797 30.1172ZM5.39062 30.1172C5.39062 34.418 5.39062 38.707 5.39062 43.0078C5.39062 44.9297 5.83594 46.7344 6.83203 48.3633C9.44531 52.6406 13.3945 54.7266 18.293 54.8086C26.1562 54.9258 34.0312 54.8555 41.9062 54.832C43.8398 54.832 45.7148 54.4336 47.4609 53.6016C52.2187 51.3281 54.8789 47.707 54.8555 42.2695C54.8086 33.9492 54.8437 25.6289 54.8437 17.3086C54.8437 14.9531 54.1758 12.7969 52.7812 10.8985C50.0859 7.25392 46.3594 5.46095 41.9062 5.41408C34.0547 5.32033 26.2031 5.37892 18.3516 5.39064C16.6758 5.39064 15.0586 5.73048 13.4883 6.31642C9.17578 7.92189 5.16797 11.9883 5.35547 17.9766C5.49609 22.0313 5.39062 26.0742 5.39062 30.1172Z" fill="white"/>
<path d="M30.1875 42.5391C22.6289 42.5391 16.5352 36.5157 16.5235 29.0157C16.5117 21.6329 22.6524 15.586 30.1641 15.586C37.6992 15.5743 43.8164 21.6094 43.8281 29.0508C43.8281 36.4805 37.7227 42.5274 30.1875 42.5391ZM30.1875 38.2032C35.332 38.2032 39.5039 34.0899 39.4922 29.0274C39.4805 24.0118 35.3086 19.9102 30.1875 19.9102C25.043 19.9102 20.8477 24 20.8477 29.0508C20.8594 34.1133 25.043 38.2149 30.1875 38.2032Z" fill="white"/>
<path d="M45.4102 11.4844C46.9923 11.4844 48.2813 12.832 48.2813 14.4844C48.2696 16.1367 46.9688 17.4727 45.3868 17.4609C43.8282 17.4492 42.5509 16.1133 42.5509 14.4961C42.5391 12.8437 43.8282 11.4844 45.4102 11.4844Z" fill="white"/>
</svg>
