<svg width="60" height="60" viewBox="0 0 60 60" fill="none" xmlns="http://www.w3.org/2000/svg">
<path d="M11.1648 0C5.04875 0 0 5.04875 0 11.1648V48.8352C0 54.9512 5.04875 60 11.1648 60H48.8352C54.9512 60 60 54.9512 60 48.8352V11.1648C60 5.04875 54.9512 0 48.8352 0H11.1648ZM11.1648 5.45455H48.8352C52.0028 5.45455 54.5455 7.99716 54.5455 11.1648V48.8352C54.5455 52.0028 52.0028 54.5455 48.8352 54.5455H11.1648C7.99716 54.5455 5.45455 52.0028 5.45455 48.8352V11.1648C5.45455 7.99716 7.99716 5.45455 11.1648 5.45455ZM29.233 19.6875C27.2311 19.6684 25.5055 19.727 24.5455 20.1989C23.9073 20.5125 23.3932 21.1807 23.6932 21.2216C24.0641 21.2707 24.9532 21.4684 25.3977 22.0739C25.9732 22.8566 25.9091 24.6307 25.9091 24.6307C25.9091 24.6307 26.2439 29.4825 25.142 30.0852C24.3866 30.497 23.3645 29.5868 21.1364 25.7386C19.9936 23.7668 19.1761 21.6477 19.1761 21.6477C19.1761 21.6477 18.962 21.1841 18.6648 20.9659C18.3048 20.7014 17.8125 20.625 17.8125 20.625L12.5284 20.7102C12.5284 20.7102 11.7123 20.702 11.4205 21.0511C11.1586 21.362 11.3352 21.9886 11.3352 21.9886C11.3352 21.9886 15.555 31.8102 20.2841 36.733C24.6259 41.2439 29.5739 40.9091 29.5739 40.9091H31.7898C31.7898 40.9091 32.4689 40.8539 32.8125 40.483C33.1289 40.142 33.0682 39.4602 33.0682 39.4602C33.0682 39.4602 33.0436 36.4902 34.4318 36.0511C35.8009 35.6175 37.5948 38.9482 39.4602 40.2273C40.8702 41.1955 41.9318 40.9943 41.9318 40.9943L46.875 40.9091C46.875 40.9091 49.4741 40.7441 48.2386 38.6932C48.1377 38.5268 47.5602 37.2027 44.5739 34.4318C41.4484 31.53 41.8302 31.95 45.5966 26.9318C47.8902 23.8745 48.8659 22.0207 48.5795 21.2216C48.3068 20.4607 46.6193 20.7102 46.6193 20.7102H40.9943C40.9943 20.7102 40.5355 20.6952 40.2273 20.8807C39.9245 21.0607 39.7159 21.4773 39.7159 21.4773C39.7159 21.4773 38.8541 23.8111 37.6705 25.8239C35.1723 30.0675 34.1591 30.2618 33.75 30C32.7982 29.3864 33.0682 27.5645 33.0682 26.25C33.0682 22.1373 33.7132 20.3877 31.875 19.9432C31.2641 19.7959 30.7957 19.7039 29.233 19.6875Z" fill="white"/>
</svg>
