<svg width="60" height="60" viewBox="0 0 60 60" fill="none" xmlns="http://www.w3.org/2000/svg">
<path d="M60 29.2273C60 45.3693 46.814 58.4547 30.5453 58.4547C25.3807 58.4547 20.5287 57.1347 16.3073 54.818L0 60L5.31667 44.3187C2.63467 39.9147 1.09 34.7493 1.09 29.2273C1.09 13.0853 14.2773 0 30.5453 0C46.8153 0 60 13.0853 60 29.2273ZM30.5453 4.65467C16.8893 4.65467 5.78133 15.678 5.78133 29.2273C5.78133 34.604 7.534 39.5833 10.4987 43.634L7.40467 52.76L16.9213 49.7353C20.8313 52.3027 25.5153 53.8 30.546 53.8C44.2 53.8 55.31 42.778 55.31 29.2287C55.31 15.6793 44.2007 4.65467 30.5453 4.65467ZM45.4193 35.9587C45.2373 35.6607 44.7567 35.4807 44.0353 35.1227C43.3127 34.7647 39.762 33.0307 39.102 32.7927C38.44 32.554 37.9573 32.434 37.4767 33.1507C36.996 33.868 35.612 35.4807 35.19 35.9587C34.7687 36.438 34.348 36.498 33.6253 36.1393C32.904 35.7813 30.578 35.024 27.82 32.584C25.674 30.6853 24.2247 28.3413 23.8033 27.6233C23.3827 26.9067 23.7593 26.5193 24.12 26.1627C24.4453 25.8413 24.8427 25.326 25.2033 24.908C25.5653 24.4893 25.6853 24.1913 25.9247 23.7127C26.1667 23.2347 26.046 22.8167 25.8647 22.4573C25.6847 22.0993 24.2393 18.574 23.638 17.1393C23.0367 15.706 22.436 15.9447 22.014 15.9447C21.5933 15.9447 21.1113 15.8847 20.63 15.8847C20.1487 15.8847 19.366 16.064 18.704 16.7807C18.0427 17.498 16.178 19.2313 16.178 22.756C16.178 26.2813 18.764 29.6873 19.126 30.1647C19.4867 30.642 24.1193 38.1113 31.4593 40.98C38.8 43.8473 38.8 42.8907 40.124 42.7707C41.4467 42.6513 44.3947 41.038 44.9987 39.366C45.5987 37.6913 45.5987 36.2573 45.4193 35.9587Z" fill="white"/>
</svg>
